<mxfile host="app.diagrams.net" modified="2023-12-21T13:24:34.974Z" agent="Mozilla/5.0 (Windows NT 10.0; Win64; x64) AppleWebKit/537.36 (KHTML, like Gecko) Chrome/120.0.0.0 Safari/537.36" etag="RfCySb_Ph86LPJy1YN57" version="22.1.11" type="device">
  <diagram name="Page-1" id="FGHqFumgkkrB2GVE5oEv">
    <mxGraphModel dx="276" dy="150" grid="1" gridSize="10" guides="1" tooltips="1" connect="1" arrows="1" fold="1" page="1" pageScale="1" pageWidth="4681" pageHeight="3300" math="0" shadow="0">
      <root>
        <mxCell id="0" />
        <mxCell id="1" parent="0" />
        <mxCell id="a3Fm2JBv3vmARhR7Jr_O-1" value="&lt;p style=&quot;margin:0px;margin-top:4px;text-align:center;&quot;&gt;&lt;b&gt;MainWindow&lt;/b&gt;&lt;/p&gt;&lt;hr size=&quot;1&quot;&gt;&lt;p style=&quot;margin:0px;margin-left:4px;&quot;&gt;- manager : SceneManager&lt;/p&gt;&lt;p style=&quot;margin:0px;margin-left:4px;&quot;&gt;- model : QStringListModel&lt;/p&gt;&lt;p style=&quot;margin:0px;margin-left:4px;&quot;&gt;- name_id : map&amp;lt;QString, int&amp;gt;&lt;/p&gt;&lt;p style=&quot;margin:0px;margin-left:4px;&quot;&gt;- name_data: map&amp;lt;QString, UI_data&amp;gt;&lt;/p&gt;&lt;hr size=&quot;1&quot;&gt;&lt;p style=&quot;margin:0px;margin-left:4px;&quot;&gt;+ on_add_object_clicked() : void&lt;/p&gt;&lt;p style=&quot;margin:0px;margin-left:4px;&quot;&gt;+ on_delete_object_clicked() : void&lt;br&gt;&lt;/p&gt;&lt;p style=&quot;margin:0px;margin-left:4px;&quot;&gt;+ on_add_texture_clicked() : void&lt;/p&gt;&lt;p style=&quot;margin:0px;margin-left:4px;&quot;&gt;+ on_procedural_clicked() : void&lt;/p&gt;&lt;p style=&quot;margin:0px;margin-left:4px;&quot;&gt;+ on_bump_clicked() : void&lt;/p&gt;" style="verticalAlign=top;align=left;overflow=fill;fontSize=12;fontFamily=Helvetica;html=1;whiteSpace=wrap;" parent="1" vertex="1">
          <mxGeometry x="955" y="60" width="210" height="180" as="geometry" />
        </mxCell>
        <mxCell id="HdyoK2JExDLpZVVlVOz_-5" value="" style="endArrow=diamondThin;endFill=1;endSize=12;html=1;rounded=0;entryX=0.5;entryY=1;entryDx=0;entryDy=0;exitX=0.5;exitY=0;exitDx=0;exitDy=0;startSize=4;jumpSize=7;strokeWidth=1;movable=1;resizable=1;rotatable=1;deletable=1;editable=1;locked=0;connectable=1;" parent="1" source="a3Fm2JBv3vmARhR7Jr_O-2" target="a3Fm2JBv3vmARhR7Jr_O-1" edge="1">
          <mxGeometry width="160" relative="1" as="geometry">
            <mxPoint x="750.5714285714284" y="270" as="sourcePoint" />
            <mxPoint x="630.5714285714284" y="310" as="targetPoint" />
          </mxGeometry>
        </mxCell>
        <mxCell id="a3Fm2JBv3vmARhR7Jr_O-2" value="&lt;p style=&quot;margin:0px;margin-top:4px;text-align:center;&quot;&gt;&lt;b&gt;SceneManager&lt;/b&gt;&lt;/p&gt;&lt;hr size=&quot;1&quot;&gt;&lt;p style=&quot;margin:0px;margin-left:4px;&quot;&gt;- img : QImage&lt;/p&gt;&lt;p style=&quot;margin:0px;margin-left:4px;&quot;&gt;- models : vector&amp;lt;Model *&amp;gt;&lt;/p&gt;&lt;p style=&quot;margin:0px;margin-left:4px;&quot;&gt;- Zbuffer : vector&amp;lt;vector&amp;lt;float&amp;gt;&amp;gt;&lt;/p&gt;&lt;p style=&quot;margin:0px;margin-left:4px;&quot;&gt;- camera : Camera&lt;/p&gt;&lt;p style=&quot;margin:0px;margin-left:4px;&quot;&gt;- light : Light&lt;/p&gt;&lt;p style=&quot;margin:0px;margin-left:4px;&quot;&gt;- curr_model : int&lt;/p&gt;&lt;hr size=&quot;1&quot;&gt;&lt;p style=&quot;margin:0px;margin-left:4px;&quot;&gt;+ uploadModel(string name, int id) : void&lt;/p&gt;&lt;p style=&quot;margin:0px;margin-left:4px;&quot;&gt;+ deleteModel() : void&lt;/p&gt;&lt;p style=&quot;margin:0px;margin-left:4px;&quot;&gt;+ render() : void&lt;/p&gt;&lt;p style=&quot;margin:0px;margin-left:4px;&quot;&gt;+ rasterize() : void&lt;/p&gt;&lt;p style=&quot;margin:0px;margin-left:4px;&quot;&gt;+ move(type t, float offs) : void&lt;/p&gt;&lt;p style=&quot;margin:0px;margin-left:4px;&quot;&gt;+ scale(type t, float k) : void&lt;/p&gt;&lt;p style=&quot;margin:0px;margin-left:4px;&quot;&gt;+ rotate(type t, float angle) : void&lt;/p&gt;&lt;p style=&quot;margin:0px;margin-left:4px;&quot;&gt;&lt;br&gt;&lt;/p&gt;" style="verticalAlign=top;align=left;overflow=fill;fontSize=12;fontFamily=Helvetica;html=1;whiteSpace=wrap;" parent="1" vertex="1">
          <mxGeometry x="950" y="280" width="220" height="240" as="geometry" />
        </mxCell>
        <mxCell id="a3Fm2JBv3vmARhR7Jr_O-3" value="&lt;p style=&quot;margin:0px;margin-top:4px;text-align:center;&quot;&gt;&lt;b&gt;Camera&lt;/b&gt;&lt;/p&gt;&lt;hr size=&quot;1&quot;&gt;&lt;p style=&quot;margin:0px;margin-left:4px;&quot;&gt;+ position : Vec3f&lt;/p&gt;&lt;p style=&quot;margin:0px;margin-left:4px;&quot;&gt;+ up : Vec3f&lt;/p&gt;&lt;p style=&quot;margin:0px;margin-left:4px;&quot;&gt;+ target : Vec3f&lt;/p&gt;&lt;p style=&quot;margin:0px;margin-left:4px;&quot;&gt;+ fov : float&lt;/p&gt;&lt;p style=&quot;margin:0px;margin-left:4px;&quot;&gt;+ zn : float&lt;/p&gt;&lt;p style=&quot;margin:0px;margin-left:4px;&quot;&gt;+ zf : float&lt;/p&gt;&lt;p style=&quot;margin:0px;margin-left:4px;&quot;&gt;+ aspect_ratio : float&lt;/p&gt;&lt;hr size=&quot;1&quot;&gt;&lt;p style=&quot;margin:0px;margin-left:4px;&quot;&gt;+ getViewMatrix(): Mat4x4f&lt;/p&gt;&lt;p style=&quot;margin:0px;margin-left:4px;&quot;&gt;+ shiftX(float dist) : void&lt;/p&gt;&lt;p style=&quot;margin:0px;margin-left:4px;&quot;&gt;+ shiftY(float dist) : void&lt;br&gt;&lt;/p&gt;&lt;p style=&quot;margin:0px;margin-left:4px;&quot;&gt;+ shiftZ(float dist) : void&lt;br&gt;&lt;/p&gt;&lt;p style=&quot;margin:0px;margin-left:4px;&quot;&gt;+ rotateX(float angle) : void&lt;/p&gt;&lt;p style=&quot;margin:0px;margin-left:4px;&quot;&gt;+ rotateY(float angle) : void&lt;/p&gt;" style="verticalAlign=top;align=left;overflow=fill;fontSize=12;fontFamily=Helvetica;html=1;whiteSpace=wrap;" parent="1" vertex="1">
          <mxGeometry x="650" y="615" width="160" height="240" as="geometry" />
        </mxCell>
        <mxCell id="a3Fm2JBv3vmARhR7Jr_O-5" value="&lt;p style=&quot;margin:0px;margin-top:4px;text-align:center;&quot;&gt;&lt;b&gt;Light&lt;/b&gt;&lt;/p&gt;&lt;hr size=&quot;1&quot;&gt;&lt;p style=&quot;margin:0px;margin-left:4px;&quot;&gt;- pos : Vec3f&lt;/p&gt;&lt;p style=&quot;margin:0px;margin-left:4px;&quot;&gt;- color : Vec3f&lt;/p&gt;&lt;p style=&quot;margin:0px;margin-left:4px;&quot;&gt;intensity : float&lt;/p&gt;&lt;hr size=&quot;1&quot;&gt;&lt;p style=&quot;margin:0px;margin-left:4px;&quot;&gt;+ shiftX(const float&amp;amp; offs) : void&lt;/p&gt;&lt;p style=&quot;margin:0px;margin-left:4px;&quot;&gt;+ shiftY(const float&amp;amp; offs) : void&lt;br&gt;&lt;/p&gt;&lt;p style=&quot;margin:0px;margin-left:4px;&quot;&gt;+ shiftZ(const float&amp;amp; offs) : void&lt;br&gt;&lt;/p&gt;" style="verticalAlign=top;align=left;overflow=fill;fontSize=12;fontFamily=Helvetica;html=1;whiteSpace=wrap;" parent="1" vertex="1">
          <mxGeometry x="1215" y="900" width="170" height="130" as="geometry" />
        </mxCell>
        <mxCell id="a3Fm2JBv3vmARhR7Jr_O-6" value="&lt;p style=&quot;margin:0px;margin-top:4px;text-align:center;&quot;&gt;&lt;b&gt;Vertex&lt;/b&gt;&lt;/p&gt;&lt;hr size=&quot;1&quot;&gt;&lt;p style=&quot;margin:0px;margin-left:4px;&quot;&gt;+ position : Vec3f&lt;/p&gt;&lt;p style=&quot;margin:0px;margin-left:4px;&quot;&gt;+ normal : Vec3f&lt;br&gt;&lt;/p&gt;&lt;p style=&quot;margin:0px;margin-left:4px;&quot;&gt;+ texture : Vec2f&lt;br&gt;&lt;/p&gt;&lt;p style=&quot;margin:0px;margin-left:4px;&quot;&gt;+ color : Vec3f&lt;br&gt;&lt;/p&gt;&lt;p style=&quot;margin:0px;margin-left:4px;&quot;&gt;+ invW : float&lt;/p&gt;&lt;hr size=&quot;1&quot;&gt;&lt;p style=&quot;margin:0px;margin-left:4px;&quot;&gt;+ Vertex(Vec3f _position)&lt;/p&gt;" style="verticalAlign=top;align=left;overflow=fill;fontSize=12;fontFamily=Helvetica;html=1;whiteSpace=wrap;" parent="1" vertex="1">
          <mxGeometry x="1360" y="607.5" width="150" height="135" as="geometry" />
        </mxCell>
        <mxCell id="a3Fm2JBv3vmARhR7Jr_O-7" value="&lt;p style=&quot;margin:0px;margin-top:4px;text-align:center;&quot;&gt;&lt;b&gt;Face&lt;/b&gt;&lt;/p&gt;&lt;hr size=&quot;1&quot;&gt;&lt;p style=&quot;margin:0px;margin-left:4px;&quot;&gt;+ a : Vertex&lt;/p&gt;&lt;p style=&quot;margin:0px;margin-left:4px;&quot;&gt;+ b : Vertex&lt;/p&gt;&lt;p style=&quot;margin:0px;margin-left:4px;&quot;&gt;+ c : Vertex&lt;/p&gt;&lt;p style=&quot;margin:0px;margin-left:4px;&quot;&gt;+ normal : Vec3f&lt;/p&gt;&lt;hr size=&quot;1&quot;&gt;&lt;p style=&quot;margin:0px;margin-left:4px;&quot;&gt;+ Face(Vertex a_, Vertex b_, Vertex c_)&lt;/p&gt;" style="verticalAlign=top;align=left;overflow=fill;fontSize=12;fontFamily=Helvetica;html=1;whiteSpace=wrap;" parent="1" vertex="1">
          <mxGeometry x="1395" y="820" width="160" height="140" as="geometry" />
        </mxCell>
        <mxCell id="a3Fm2JBv3vmARhR7Jr_O-8" value="&lt;p style=&quot;margin:0px;margin-top:4px;text-align:center;&quot;&gt;&lt;b&gt;Model&lt;/b&gt;&lt;/p&gt;&lt;hr size=&quot;1&quot;&gt;&lt;p style=&quot;margin:0px;margin-left:4px;&quot;&gt;- alpha_x, alpha_y, alpha_z : float&lt;/p&gt;&lt;p style=&quot;margin:0px;margin-left:4px;&quot;&gt;- shift_x, shift_y, shift_z : float&lt;/p&gt;&lt;p style=&quot;margin:0px;margin-left:4px;&quot;&gt;- scale_x, scale_y, scale_y : float&lt;/p&gt;&lt;p style=&quot;margin:0px;margin-left:4px;&quot;&gt;+ faces : vector&amp;lt;Face&amp;gt;&lt;/p&gt;&lt;p style=&quot;margin:0px;margin-left:4px;&quot;&gt;+ id_model : int&lt;/p&gt;&lt;p style=&quot;margin:0px;margin-left:4px;&quot;&gt;+ textute : QImage&lt;/p&gt;&lt;p style=&quot;margin:0px;margin-left:4px;&quot;&gt;+ isTextured : bool&lt;/p&gt;&lt;p style=&quot;margin:0px;margin-left:4px;&quot;&gt;+ ambient_coef, diffuse_coef : float&lt;/p&gt;&lt;p style=&quot;margin:0px;margin-left:4px;&quot;&gt;+ specular_coef, alpha_coef: float&lt;/p&gt;&lt;hr size=&quot;1&quot;&gt;&lt;p style=&quot;margin:0px;margin-left:4px;&quot;&gt;+ moveX(float offs), moveY(float offs), moveZ(float offs) : void&lt;/p&gt;&lt;p style=&quot;margin:0px;margin-left:4px;&quot;&gt;+ scaleX(float k),&amp;nbsp;scaleY(float k), scaleZ(float k): void&lt;/p&gt;&lt;p style=&quot;margin:0px;margin-left:4px;&quot;&gt;+ rotateX(float a), rotateY(float a), rotateZ(float a) : void&lt;/p&gt;" style="verticalAlign=top;align=left;overflow=fill;fontSize=12;fontFamily=Helvetica;html=1;whiteSpace=wrap;" parent="1" vertex="1">
          <mxGeometry x="870" y="600" width="210" height="270" as="geometry" />
        </mxCell>
        <mxCell id="a3Fm2JBv3vmARhR7Jr_O-9" value="&lt;p style=&quot;margin:0px;margin-top:4px;text-align:center;&quot;&gt;&lt;b&gt;Vec3&lt;/b&gt;&lt;/p&gt;&lt;hr size=&quot;1&quot;&gt;&lt;p style=&quot;margin:0px;margin-left:4px;&quot;&gt;- x, y, z : type T&lt;/p&gt;&lt;hr size=&quot;1&quot;&gt;&lt;p style=&quot;margin:0px;margin-left:4px;&quot;&gt;+ len()&lt;/p&gt;&lt;p style=&quot;margin:0px;margin-left:4px;&quot;&gt;+ normalize()&lt;/p&gt;&lt;p style=&quot;margin:0px;margin-left:4px;&quot;&gt;+ dot()&lt;/p&gt;&lt;p style=&quot;margin:0px;margin-left:4px;&quot;&gt;+ cross&lt;/p&gt;&lt;p style=&quot;margin:0px;margin-left:4px;&quot;&gt;+ hadamard()&lt;/p&gt;&lt;p style=&quot;margin:0px;margin-left:4px;&quot;&gt;+ saturate()&lt;/p&gt;" style="verticalAlign=top;align=left;overflow=fill;fontSize=12;fontFamily=Helvetica;html=1;whiteSpace=wrap;" parent="1" vertex="1">
          <mxGeometry x="1110" y="600" width="120" height="150" as="geometry" />
        </mxCell>
        <mxCell id="a3Fm2JBv3vmARhR7Jr_O-10" value="&lt;p style=&quot;margin:0px;margin-top:4px;text-align:center;&quot;&gt;&lt;b&gt;Vec4&lt;/b&gt;&lt;/p&gt;&lt;hr size=&quot;1&quot;&gt;&lt;p style=&quot;margin:0px;margin-left:4px;&quot;&gt;- Vec3&lt;/p&gt;&lt;p style=&quot;margin:0px;margin-left:4px;&quot;&gt;- w : type T&lt;/p&gt;" style="verticalAlign=top;align=left;overflow=fill;fontSize=12;fontFamily=Helvetica;html=1;whiteSpace=wrap;" parent="1" vertex="1">
          <mxGeometry x="1112.5" y="790" width="115" height="70" as="geometry" />
        </mxCell>
        <mxCell id="a3Fm2JBv3vmARhR7Jr_O-12" value="&lt;p style=&quot;margin:0px;margin-top:4px;text-align:center;&quot;&gt;&lt;b&gt;Matrix&lt;/b&gt;&lt;/p&gt;&lt;hr size=&quot;1&quot;&gt;&lt;p style=&quot;margin:0px;margin-left:4px;&quot;&gt;- arr[S][S] : type T&lt;/p&gt;&lt;hr size=&quot;1&quot;&gt;&lt;p style=&quot;margin:0px;margin-left:4px;&quot;&gt;+ Indentity() : Mat4x4f&lt;/p&gt;&lt;p style=&quot;margin:0px;margin-left:4px;&quot;&gt;+ ProjectionFOV() : Mat4x4f&lt;/p&gt;&lt;p style=&quot;margin:0px;margin-left:4px;&quot;&gt;+ LookAtAH() : Mat4x4f&lt;/p&gt;&lt;p style=&quot;margin:0px;margin-left:4px;&quot;&gt;+ Scale() : Mat4x4f&lt;/p&gt;&lt;p style=&quot;margin:0px;margin-left:4px;&quot;&gt;+ Rotation() : Mat4x4f&lt;/p&gt;&lt;p style=&quot;margin:0px;margin-left:4px;&quot;&gt;+ Translation : Mat4x4f&lt;/p&gt;" style="verticalAlign=top;align=left;overflow=fill;fontSize=12;fontFamily=Helvetica;html=1;whiteSpace=wrap;" parent="1" vertex="1">
          <mxGeometry x="660" y="910" width="190" height="150" as="geometry" />
        </mxCell>
        <mxCell id="HdyoK2JExDLpZVVlVOz_-10" value="" style="endArrow=diamondThin;endFill=0;endSize=12;html=1;rounded=0;exitX=0.5;exitY=0;exitDx=0;exitDy=0;entryX=0.531;entryY=1.001;entryDx=0;entryDy=0;entryPerimeter=0;" parent="1" target="a3Fm2JBv3vmARhR7Jr_O-2" edge="1">
          <mxGeometry width="160" relative="1" as="geometry">
            <mxPoint x="985" y="600" as="sourcePoint" />
            <mxPoint x="770" y="540" as="targetPoint" />
            <Array as="points">
              <mxPoint x="985" y="570" />
              <mxPoint x="1067" y="570" />
            </Array>
          </mxGeometry>
        </mxCell>
        <mxCell id="HdyoK2JExDLpZVVlVOz_-11" value="" style="endArrow=block;endFill=0;endSize=10;html=1;rounded=0;entryX=0.5;entryY=1;entryDx=0;entryDy=0;exitX=0.5;exitY=0;exitDx=0;exitDy=0;" parent="1" source="a3Fm2JBv3vmARhR7Jr_O-10" target="a3Fm2JBv3vmARhR7Jr_O-9" edge="1">
          <mxGeometry width="160" relative="1" as="geometry">
            <mxPoint x="1220" y="800" as="sourcePoint" />
            <mxPoint x="1380" y="800" as="targetPoint" />
          </mxGeometry>
        </mxCell>
        <mxCell id="HdyoK2JExDLpZVVlVOz_-17" value="" style="endArrow=diamondThin;endFill=1;endSize=12;html=1;rounded=0;entryX=1;entryY=0.5;entryDx=0;entryDy=0;exitX=0;exitY=0.5;exitDx=0;exitDy=0;" parent="1" source="a3Fm2JBv3vmARhR7Jr_O-6" target="a3Fm2JBv3vmARhR7Jr_O-9" edge="1">
          <mxGeometry width="160" relative="1" as="geometry">
            <mxPoint x="1290" y="800" as="sourcePoint" />
            <mxPoint x="1450" y="800" as="targetPoint" />
          </mxGeometry>
        </mxCell>
        <mxCell id="HdyoK2JExDLpZVVlVOz_-18" value="" style="endArrow=diamondThin;endFill=1;endSize=12;html=1;rounded=0;entryX=1;entryY=0.5;entryDx=0;entryDy=0;" parent="1" edge="1">
          <mxGeometry width="160" relative="1" as="geometry">
            <mxPoint x="1300" y="900" as="sourcePoint" />
            <mxPoint x="1230" y="691" as="targetPoint" />
            <Array as="points">
              <mxPoint x="1300" y="691" />
            </Array>
          </mxGeometry>
        </mxCell>
        <mxCell id="HdyoK2JExDLpZVVlVOz_-19" value="" style="endArrow=diamondThin;endFill=1;endSize=12;html=1;rounded=0;entryX=0.5;entryY=1;entryDx=0;entryDy=0;exitX=0.5;exitY=0;exitDx=0;exitDy=0;" parent="1" source="a3Fm2JBv3vmARhR7Jr_O-7" target="a3Fm2JBv3vmARhR7Jr_O-6" edge="1">
          <mxGeometry width="160" relative="1" as="geometry">
            <mxPoint x="1680" y="824.58" as="sourcePoint" />
            <mxPoint x="1510" y="824.58" as="targetPoint" />
          </mxGeometry>
        </mxCell>
        <mxCell id="HdyoK2JExDLpZVVlVOz_-23" value="" style="endArrow=diamondThin;endFill=1;endSize=12;html=1;rounded=0;entryX=1;entryY=0.5;entryDx=0;entryDy=0;exitX=0.25;exitY=0;exitDx=0;exitDy=0;" parent="1" source="a3Fm2JBv3vmARhR7Jr_O-7" edge="1">
          <mxGeometry width="160" relative="1" as="geometry">
            <mxPoint x="1460" y="790" as="sourcePoint" />
            <mxPoint x="1230" y="691" as="targetPoint" />
            <Array as="points">
              <mxPoint x="1435" y="790" />
              <mxPoint x="1300" y="790" />
              <mxPoint x="1300" y="691" />
            </Array>
          </mxGeometry>
        </mxCell>
        <mxCell id="HdyoK2JExDLpZVVlVOz_-24" value="" style="endArrow=diamondThin;endFill=0;endSize=12;html=1;rounded=0;entryX=0.5;entryY=1;entryDx=0;entryDy=0;exitX=0.5;exitY=0;exitDx=0;exitDy=0;" parent="1" source="a3Fm2JBv3vmARhR7Jr_O-12" target="a3Fm2JBv3vmARhR7Jr_O-3" edge="1">
          <mxGeometry width="160" relative="1" as="geometry">
            <mxPoint x="440" y="910" as="sourcePoint" />
            <mxPoint x="600" y="910" as="targetPoint" />
            <Array as="points">
              <mxPoint x="755" y="880" />
              <mxPoint x="730" y="880" />
            </Array>
          </mxGeometry>
        </mxCell>
        <mxCell id="HdyoK2JExDLpZVVlVOz_-25" value="" style="endArrow=diamondThin;endFill=0;endSize=12;html=1;rounded=0;entryX=0.5;entryY=1;entryDx=0;entryDy=0;exitX=0.5;exitY=0;exitDx=0;exitDy=0;" parent="1" source="a3Fm2JBv3vmARhR7Jr_O-12" target="a3Fm2JBv3vmARhR7Jr_O-8" edge="1">
          <mxGeometry width="160" relative="1" as="geometry">
            <mxPoint x="860" y="970" as="sourcePoint" />
            <mxPoint x="1020" y="970" as="targetPoint" />
            <Array as="points">
              <mxPoint x="755" y="890" />
              <mxPoint x="975" y="890" />
            </Array>
          </mxGeometry>
        </mxCell>
        <mxCell id="HdyoK2JExDLpZVVlVOz_-27" value="" style="endArrow=diamondThin;endFill=0;endSize=12;html=1;rounded=0;entryX=0.603;entryY=0.997;entryDx=0;entryDy=0;entryPerimeter=0;exitX=0.5;exitY=1;exitDx=0;exitDy=0;" parent="1" source="a3Fm2JBv3vmARhR7Jr_O-7" target="a3Fm2JBv3vmARhR7Jr_O-8" edge="1">
          <mxGeometry width="160" relative="1" as="geometry">
            <mxPoint x="1000" y="1070" as="sourcePoint" />
            <mxPoint x="1160" y="1070" as="targetPoint" />
            <Array as="points">
              <mxPoint x="1475" y="1070" />
              <mxPoint x="1000" y="1070" />
            </Array>
          </mxGeometry>
        </mxCell>
        <mxCell id="HdyoK2JExDLpZVVlVOz_-29" value="" style="endArrow=diamondThin;endFill=0;endSize=12;html=1;rounded=0;entryX=0;entryY=0.25;entryDx=0;entryDy=0;exitX=0.5;exitY=0;exitDx=0;exitDy=0;" parent="1" source="a3Fm2JBv3vmARhR7Jr_O-3" target="a3Fm2JBv3vmARhR7Jr_O-2" edge="1">
          <mxGeometry width="160" relative="1" as="geometry">
            <mxPoint x="650" y="480" as="sourcePoint" />
            <mxPoint x="810" y="480" as="targetPoint" />
            <Array as="points">
              <mxPoint x="730" y="340" />
            </Array>
          </mxGeometry>
        </mxCell>
        <mxCell id="y--LjiodROgOVGfZo__S-1" value="&lt;p style=&quot;margin:0px;margin-top:4px;text-align:center;&quot;&gt;&lt;b&gt;TextureShader&lt;/b&gt;&lt;/p&gt;&lt;hr size=&quot;1&quot;&gt;&lt;p style=&quot;margin:0px;margin-left:4px;&quot;&gt;+ texture : Img&lt;/p&gt;&lt;hr size=&quot;1&quot;&gt;&lt;p style=&quot;margin:0px;margin-left:4px;&quot;&gt;+ shade() : void&lt;/p&gt;" style="verticalAlign=top;align=left;overflow=fill;fontSize=12;fontFamily=Helvetica;html=1;whiteSpace=wrap;" vertex="1" parent="1">
          <mxGeometry x="760" y="420" width="160" height="90" as="geometry" />
        </mxCell>
        <mxCell id="y--LjiodROgOVGfZo__S-2" value="" style="endArrow=diamondThin;endFill=0;endSize=12;html=1;rounded=0;entryX=0.005;entryY=0.783;entryDx=0;entryDy=0;exitX=1.002;exitY=0.541;exitDx=0;exitDy=0;entryPerimeter=0;exitPerimeter=0;" edge="1" parent="1" source="y--LjiodROgOVGfZo__S-1" target="a3Fm2JBv3vmARhR7Jr_O-2">
          <mxGeometry width="160" relative="1" as="geometry">
            <mxPoint x="650" y="600" as="sourcePoint" />
            <mxPoint x="810" y="600" as="targetPoint" />
          </mxGeometry>
        </mxCell>
      </root>
    </mxGraphModel>
  </diagram>
</mxfile>
